<?xml version="1.0" encoding="utf-8"?>
<!-- Generator: Adobe Illustrator 19.2.0, SVG Export Plug-In . SVG Version: 6.00 Build 0)  -->
<svg version="1.1" id="svg97" xmlns:svg="http://www.w3.org/2000/svg"
	 xmlns="http://www.w3.org/2000/svg" xmlns:xlink="http://www.w3.org/1999/xlink" x="0px" y="0px" viewBox="0 0 512 512"
	 style="enable-background:new 0 0 512 512;" xml:space="preserve">
<style type="text/css">
	.st0{fill:url(#path2375_1_);stroke:#5A5A5A;stroke-linecap:round;stroke-linejoin:round;}
	
		.st1{opacity:0.1136;fill:#729FCF;stroke:#000000;stroke-width:1;stroke-linecap:round;stroke-linejoin:round;enable-background:new    ;}
	.st2{opacity:0.4021;fill:url(#rect4173_1_);enable-background:new    ;}
	.st3{opacity:0.4021;fill:url(#path5058_1_);enable-background:new    ;}
	.st4{opacity:0.4021;fill:url(#path5018_1_);enable-background:new    ;}
	.st5{fill:url(#path2380_1_);}
	.st6{fill:#FFFFFF;fill-opacity:0.5803;}
	.st7{opacity:0.1136;fill:#729FCF;stroke:#000000;stroke-linecap:round;stroke-linejoin:round;enable-background:new    ;}
	.st8{opacity:0.392;fill:url(#path13840_1_);enable-background:new    ;}
	.st9{fill:url(#path8230_1_);stroke:url(#path8230_2_);}
	.st10{fill:none;stroke:#A1A1A1;}
	.st11{fill:url(#path2401_1_);stroke:#3465A4;stroke-width:1;stroke-linejoin:round;}
	.st12{fill:url(#path323_1_);}
	.st13{fill:none;stroke:#A1A1A1;stroke-width:1;}
	.st14{opacity:0.5227;fill:none;stroke:url(#path324_1_);stroke-linecap:round;enable-background:new    ;}
	.st15{fill:#FFFFFF;}
</style>
<g id="layer1">
</g>
<g id="layer3">
	
		<radialGradient id="path2375_1_" cx="276.4424" cy="92.6459" r="348.9725" gradientTransform="matrix(1.0156 0 -0.1031 -1.0005 52.8772 514.179)" gradientUnits="userSpaceOnUse">
		<stop  offset="0" style="stop-color:#A0A0A0"/>
		<stop  offset="1" style="stop-color:#A8A8A8"/>
	</radialGradient>
	<path id="path2375" class="st0" d="M44.6,427.1c0.5,4.5,5.4,9.1,9.9,9.1h336.8c4.5,0,8.5-4.5,8-9.1l-29.2-293.4
		c-0.5-4.5-5.4-9.1-9.9-9.1H222.7c-6.4,0-13.1-4.1-15.2-10.4l-11.9-35.8c-1.8-5.5-5.9-8-14.2-8H19.8c-4.5,0-8.5,4.5-8,9.1
		L44.6,427.1z"/>
	<path id="path13113" class="st1" d="M30.8,198.7h337"/>
	<path id="path13160" class="st1" d="M52.3,415h324.4"/>
	<path id="path13139" class="st1" d="M52.3,393.4h324.4"/>
	<g id="g5022" transform="matrix(2.165152e-2,0,0,1.903841e-2,42.41538,36.93372)">
		
			<linearGradient id="rect4173_1_" gradientUnits="userSpaceOnUse" x1="184708.4219" y1="-473900.9688" x2="184708.4219" y2="-476528.0938" gradientTransform="matrix(6.006974e-02 0 0 -3.750007e-02 -1731.052 117.3532)">
			<stop  offset="0" style="stop-color:#000000;stop-opacity:0"/>
			<stop  offset="0.5" style="stop-color:#000000"/>
			<stop  offset="1" style="stop-color:#000000;stop-opacity:0"/>
		</linearGradient>
		<rect id="rect4173" x="2118.7" y="17888.7" class="st2" width="14491.3" height="5174.8"/>
		
			<radialGradient id="path5058_1_" cx="306845.4688" cy="-542086.1875" r="1267.2019" gradientTransform="matrix(6.006974e-02 0 0 -3.750007e-02 -1730.5061 117.3532)" gradientUnits="userSpaceOnUse">
			<stop  offset="0" style="stop-color:#000000"/>
			<stop  offset="1" style="stop-color:#000000;stop-opacity:0"/>
		</radialGradient>
		<path id="path5058" class="st3" d="M16610,17888.9v5174.5c1545.5,9.7,3736.3-1159.3,3736.3-2587.6
			C20346.3,19047.5,18621.6,17888.9,16610,17888.9z"/>
		
			<radialGradient id="path5018_1_" cx="-33011.7227" cy="-542086.1875" r="1267.2019" gradientTransform="matrix(-6.006974e-02 0 0 -3.750007e-02 44.0451 117.3532)" gradientUnits="userSpaceOnUse">
			<stop  offset="0" style="stop-color:#000000"/>
			<stop  offset="1" style="stop-color:#000000;stop-opacity:0"/>
		</radialGradient>
		<path id="path5018" class="st4" d="M2118.7,17888.9v5174.5c-1545.5,9.7-3736.3-1159.3-3736.3-2587.6S107.1,17888.9,2118.7,17888.9
			z"/>
	</g>
	
		<linearGradient id="path2380_1_" gradientUnits="userSpaceOnUse" x1="52.7832" y1="298.7032" x2="84.6565" y2="-68.0125" gradientTransform="matrix(1.4627 0 -6.907908e-02 -0.6837 34.9749 351.7222)">
		<stop  offset="0" style="stop-color:#FFFFFF;stop-opacity:0.7006"/>
		<stop  offset="1" style="stop-color:#FFFFFF;stop-opacity:0"/>
	</linearGradient>
	<path id="path2380" class="st5" d="M61.4,424.6c0.3,3.4-1.7,5.6-5.1,4.5l0,0c-3.5-1.1-5.9-3.4-6.3-6.7L17.2,83
		c-0.3-3.4,1.7-5.4,5.1-5.4l159.6-1c5.7,0,8,0.6,9.5,5.6c0,0,11.7,33.7,13.5,40L188,90.7c-2.9-5.4-6.5-4.5-10.5-4.5h-142
		c-3.4,0-5.4,2.2-5,5.6l32.2,333.9L61.4,424.6z"/>
	<path id="path13145" class="st1" d="M19.6,90.5h159.9"/>
	<path id="path13115" class="st1" d="M24.5,133.8H357"/>
	<g id="g2381" transform="matrix(1.034424,0,0.10452,1.034424,-10.03248,2.631914)">
		<path id="path2382" class="st6" d="M348.2,131.4c0.1-5.1,0.2-7.8-4.6-7.8l-135.8,0.1c-3.2,0-3.5-1.5,0,0
			c3.5,1.5,13.5,7.1,23.6,7.6C231.4,131.3,348.2,131.5,348.2,131.4z"/>
	</g>
	<path id="path13123" class="st1" d="M28.9,177h333.5"/>
	<path id="path13121" class="st1" d="M50.5,371.8h324.4"/>
	<path id="path13119" class="st1" d="M47.3,350.1H373"/>
	<path id="path13135" class="st1" d="M44.8,328.5h326.4"/>
	<path id="path13137" class="st1" d="M42.9,306.8h326.4"/>
	<path id="path13143" class="st7" d="M40.7,285.2h326.7"/>
	<path id="path13133" class="st1" d="M38.2,263.6h327.4"/>
	<path id="path13117" class="st1" d="M36.3,241.9h327.4"/>
	<g id="g1853" transform="matrix(1.034424,0,0.10452,1.034424,-10.03248,2.631914)">
		<path id="path1855" class="st6" d="M348.2,131.4c0.1-5.1,0.2-7.8-4.6-7.8l-135.8,0.1c-3.2,0-3.5-1.5,0,0
			c3.5,1.5,13.5,7.1,23.6,7.6C231.4,131.3,348.2,131.5,348.2,131.4z"/>
	</g>
	<path id="path13127" class="st1" d="M26.7,155.4h335.6"/>
	<path id="path13125" class="st1" d="M34.2,220.3h327.7"/>
	<path id="path13147" class="st1" d="M22,112.1h165.3"/>
	
		<linearGradient id="path13840_1_" gradientUnits="userSpaceOnUse" x1="226.3763" y1="97.0014" x2="199.3324" y2="343.1013" gradientTransform="matrix(1 0 0 -1 0 514)">
		<stop  offset="0" style="stop-color:#000000"/>
		<stop  offset="1" style="stop-color:#000000;stop-opacity:0"/>
	</linearGradient>
	<path id="path13840" class="st8" d="M366.5,161.8l28.4,266.4l-335.3,1.4L39.3,161.8C39.3,161.8,367.9,161.8,366.5,161.8z"/>
	
		<linearGradient id="path8230_1_" gradientUnits="userSpaceOnUse" x1="262.9574" y1="454.417" x2="256.1964" y2="235.361" gradientTransform="matrix(1 0 0 -1.2388 0 628.6269)">
		<stop  offset="0" style="stop-color:#FAFAFA"/>
		<stop  offset="0.5" style="stop-color:#A8A8A8"/>
		<stop  offset="1" style="stop-color:#CDCDCD"/>
	</linearGradient>
	
		<radialGradient id="path8230_2_" cx="532.5374" cy="614.4788" r="396.6993" gradientTransform="matrix(0.9683 0 0 -1.0467 44.3963 520.9427)" gradientUnits="userSpaceOnUse">
		<stop  offset="0" style="stop-color:#A3A3A3"/>
		<stop  offset="1" style="stop-color:#4C4C4C"/>
	</radialGradient>
	<path id="path8230" class="st9" d="M463.9,36c5.4,182.6-98.2,200.4-65,313.7l-340.6,9.6c-20.3-139,90.6-229.5,58.1-321.6L463.9,36z
		"/>
	<path id="path8277" class="st10" d="M161.7,80h254.9"/>
	
		<linearGradient id="path2401_1_" gradientUnits="userSpaceOnUse" x1="230.316" y1="106.2119" x2="229.1191" y2="159.6237" gradientTransform="matrix(1 0 0 -1.0221 52.0569 524.0235)">
		<stop  offset="0" style="stop-color:#6194CB"/>
		<stop  offset="1" style="stop-color:#729FCF"/>
	</linearGradient>
	<path id="path2401" class="st11" d="M57.2,431.6c1.1,2.3,3.4,4.6,6.7,4.6h360.3c2.2,0,5.6-1.4,7.7-2.9c5.7-4.2,7.1-6.6,9.7-10.5
		c26.5-40.2,62.8-208.5,62.8-208.5c1.1-2.3-1.1-4.6-4.5-4.6H122.1c-3.4,0-17.9,174.2-52.6,208.6l-13.4,13.3H57.2z"/>
	<path id="path8279" class="st10" d="M160.8,101.6h213.4"/>
	
		<linearGradient id="path323_1_" gradientUnits="userSpaceOnUse" x1="141.5632" y1="150.706" x2="226.1142" y2="-9.1481" gradientTransform="matrix(1.5353 0 0 -0.6513 2.9161 337.5849)">
		<stop  offset="0" style="stop-color:#FFFFFF;stop-opacity:0.134"/>
		<stop  offset="1" style="stop-color:#FFFFFF;stop-opacity:5.154639e-02"/>
	</linearGradient>
	<path id="path323" class="st12" d="M136.7,226.9c-8.4,54-16.2,97.5-29.4,146.2c25.8-7.6,77-34.7,185.2-34.7s180.9-100,190.9-112
		L136.7,226.9z"/>
	<path id="path8281" class="st13" d="M158.5,123.3h263"/>
	
		<linearGradient id="path324_1_" gradientUnits="userSpaceOnUse" x1="199.2431" y1="184.0585" x2="202.4921" y2="-56.0188" gradientTransform="matrix(1.4215 0 0 -0.7035 -0.4215 361.877)">
		<stop  offset="0" style="stop-color:#FFFFFF"/>
		<stop  offset="1" style="stop-color:#FFFFFF;stop-opacity:0"/>
	</linearGradient>
	<path id="path324" class="st14" d="M490.3,222H131.6c0,0-23.2,173.3-51.1,197.3c87.9,0,341.5-0.5,341.7-0.5
		C441.2,418.8,475.4,282.1,490.3,222z"/>
	<path id="path8283" class="st13" d="M150.4,144.9h258"/>
	<path id="path8285" class="st13" d="M142.1,166.5h252.6"/>
	<path id="path8287" class="st13" d="M130.1,188.2h201.7"/>
	<path id="path8289" class="st15" d="M63.6,352.5c-13.4-132.4,77.8-206.2,60.8-311h334l-324.5,6.8
		C147.5,151.7,66.9,206.7,63.6,352.5z"/>
</g>
<g id="layer2">
</g>
</svg>
